<svg xmlns="http://www.w3.org/2000/svg" viewBox="0 0 400 120" fill="none">
  <!-- Logo Mark -->
  <g transform="translate(0, 0)">
    <circle cx="60" cy="60" r="54" stroke="#0F1B2D" stroke-width="3" fill="none"/>
    <circle cx="60" cy="60" r="48" stroke="#0F1B2D" stroke-width="0.5" fill="none" opacity="0.3"/>
    <line x1="60" y1="10" x2="60" y2="110" stroke="#C9A84C" stroke-width="0.8" opacity="0.25"/>
    <line x1="10" y1="60" x2="110" y2="60" stroke="#C9A84C" stroke-width="0.8" opacity="0.25"/>
    <polygon points="60,14 57,24 63,24" fill="#C9A84C"/>
    <polygon points="60,60 82,38 72,72" fill="#0F1B2D"/>
    <rect x="46" y="38" width="5" height="44" rx="2.5" fill="#0F1B2D"/>
    <path d="M51 42 C51 42, 68 38, 68 52 C68 66, 54 60, 51 58" 
          stroke="#0F1B2D" stroke-width="4.5" fill="none" stroke-linecap="round"/>
    <line x1="58" y1="62" x2="72" y2="82" stroke="#0F1B2D" stroke-width="4.5" stroke-linecap="round"/>
    <circle cx="60" cy="60" r="3" fill="#C9A84C"/>
    <text x="60" y="8" text-anchor="middle" font-family="Inter, sans-serif" font-size="7" fill="#4A5568" font-weight="600">N</text>
    <text x="60" y="126" text-anchor="middle" font-family="Inter, sans-serif" font-size="7" fill="#4A5568" font-weight="600">S</text>
    <text x="8" y="63" text-anchor="middle" font-family="Inter, sans-serif" font-size="7" fill="#4A5568" font-weight="600">W</text>
    <text x="112" y="63" text-anchor="middle" font-family="Inter, sans-serif" font-size="7" fill="#4A5568" font-weight="600">E</text>
  </g>
  
  <!-- Wordmark -->
  <g transform="translate(138, 32)">
    <text x="0" y="0" font-family="'Playfair Display', Georgia, serif" font-size="46" font-weight="600" fill="#0F1B2D" letter-spacing="1">RecruitOps</text>
    <text x="0" y="38" font-family="Inter, -apple-system, sans-serif" font-size="13" font-weight="400" fill="#4A5568" letter-spacing="4">SPECIALIST TALENT PARTNER</text>
    <!-- Gold accent line -->
    <rect x="0" y="48" width="40" height="2" rx="1" fill="#C9A84C"/>
  </g>
</svg>